{
  "asset": {
    "generator": "glTF-Transform v4.2.1",
    "version": "2.0"
  },
  "accessors": [
    {
      "type": "VEC3",
      "componentType": 5126,
      "count": 12573,
      "max": [
        38.56162643432617,
        90.52420043945312,
        -205.7685089111328
      ],
      "min": [
        -37.93837356567383,
        -103.61631774902344,
        -458.8095703125
      ],
      "bufferView": 0,
      "byteOffset": 0
    },
    {
      "type": "SCALAR",
      "componentType": 5123,
      "count": 70737,
      "bufferView": 1,
      "byteOffset": 0
    },
    {
      "type": "SCALAR",
      "componentType": 5123,
      "count": 30747,
      "bufferView": 1,
      "byteOffset": 141476
    },
    {
      "type": "SCALAR",
      "componentType": 5123,
      "count": 66816,
      "bufferView": 1,
      "byteOffset": 202972
    },
    {
      "type": "SCALAR",
      "componentType": 5123,
      "count": 143613,
      "bufferView": 1,
      "byteOffset": 336604
    },
    {
      "type": "SCALAR",
      "componentType": 5123,
      "count": 35763,
      "bufferView": 1,
      "byteOffset": 623832
    },
    {
      "type": "SCALAR",
      "componentType": 5123,
      "count": 62955,
      "bufferView": 1,
      "byteOffset": 695360
    },
    {
      "type": "SCALAR",
      "componentType": 5123,
      "count": 36168,
      "bufferView": 1,
      "byteOffset": 821272
    },
    {
      "type": "SCALAR",
      "componentType": 5123,
      "count": 12855,
      "bufferView": 1,
      "byteOffset": 893608
    },
    {
      "type": "SCALAR",
      "componentType": 5123,
      "count": 15435,
      "bufferView": 1,
      "byteOffset": 919320
    },
    {
      "type": "SCALAR",
      "componentType": 5123,
      "count": 17400,
      "bufferView": 1,
      "byteOffset": 950192
    },
    {
      "type": "VEC3",
      "componentType": 5126,
      "count": 5694,
      "max": [
        92.83650207519531,
        6.969426900556904e-15,
        -0.8193851709365845
      ],
      "min": [
        -97.16349792480469,
        -190,
        -436.30926513671875
      ],
      "bufferView": 2,
      "byteOffset": 0
    },
    {
      "type": "VEC3",
      "componentType": 5126,
      "count": 12003,
      "max": [
        38.56162643432617,
        -36.37980651855469,
        -205.75656127929688
      ],
      "min": [
        -37.93837356567383,
        -76.49957275390625,
        -413.80975341796875
      ],
      "bufferView": 3,
      "byteOffset": 0
    },
    {
      "type": "VEC3",
      "componentType": 5126,
      "count": 24686,
      "max": [
        76.83650970458984,
        -15.999950408935547,
        -109.81938171386719
      ],
      "min": [
        -77.66352081298828,
        -176,
        -261.8196105957031
      ],
      "bufferView": 4,
      "byteOffset": 0
    },
    {
      "type": "VEC3",
      "componentType": 5126,
      "count": 7702,
      "max": [
        22.836502075195312,
        119.46810150146484,
        -218.8201446533203
      ],
      "min": [
        -27.62796401977539,
        -128.26502990722656,
        -448.28216552734375
      ],
      "bufferView": 5,
      "byteOffset": 0
    },
    {
      "type": "VEC3",
      "componentType": 5126,
      "count": 11318,
      "max": [
        19.836502075195312,
        167.2371063232422,
        -238.6833953857422
      ],
      "min": [
        -24.163497924804688,
        -29.96996307373047,
        -442.5249938964844
      ],
      "bufferView": 6,
      "byteOffset": 0
    },
    {
      "type": "VEC3",
      "componentType": 5126,
      "count": 7725,
      "max": [
        22.836502075195312,
        119.46762084960938,
        -317.15618896484375
      ],
      "min": [
        -27.163497924804688,
        -35.72026062011719,
        -448.2812194824219
      ],
      "bufferView": 7,
      "byteOffset": 0
    },
    {
      "type": "VEC3",
      "componentType": 5126,
      "count": 3438,
      "max": [
        41.83650207519531,
        -29.275861740112305,
        -109.81938171386719
      ],
      "min": [
        -46.16349792480469,
        -130,
        -140.81239318847656
      ],
      "bufferView": 8,
      "byteOffset": 0
    },
    {
      "type": "VEC3",
      "componentType": 5126,
      "count": 2915,
      "max": [
        6.83104133605957,
        90.52240753173828,
        -282.7005920410156
      ],
      "min": [
        -11.163496971130371,
        -92.76683807373047,
        -436.0189514160156
      ],
      "bufferView": 9,
      "byteOffset": 0
    },
    {
      "type": "VEC3",
      "componentType": 5126,
      "count": 3028,
      "max": [
        19.836502075195312,
        168.5433807373047,
        -251.6832275390625
      ],
      "min": [
        -24.163497924804688,
        124.54267883300781,
        -332.68359375
      ],
      "bufferView": 10,
      "byteOffset": 0
    }
  ],
  "bufferViews": [
    {
      "buffer": 0,
      "byteOffset": 0,
      "byteLength": 150876,
      "byteStride": 12,
      "target": 34962
    },
    {
      "buffer": 0,
      "byteOffset": 150876,
      "byteLength": 984992,
      "target": 34963
    },
    {
      "buffer": 0,
      "byteOffset": 1135868,
      "byteLength": 68328,
      "byteStride": 12,
      "target": 34962
    },
    {
      "buffer": 0,
      "byteOffset": 1204196,
      "byteLength": 144036,
      "byteStride": 12,
      "target": 34962
    },
    {
      "buffer": 0,
      "byteOffset": 1348232,
      "byteLength": 296232,
      "byteStride": 12,
      "target": 34962
    },
    {
      "buffer": 0,
      "byteOffset": 1644464,
      "byteLength": 92424,
      "byteStride": 12,
      "target": 34962
    },
    {
      "buffer": 0,
      "byteOffset": 1736888,
      "byteLength": 135816,
      "byteStride": 12,
      "target": 34962
    },
    {
      "buffer": 0,
      "byteOffset": 1872704,
      "byteLength": 92700,
      "byteStride": 12,
      "target": 34962
    },
    {
      "buffer": 0,
      "byteOffset": 1965404,
      "byteLength": 41256,
      "byteStride": 12,
      "target": 34962
    },
    {
      "buffer": 0,
      "byteOffset": 2006660,
      "byteLength": 34980,
      "byteStride": 12,
      "target": 34962
    },
    {
      "buffer": 0,
      "byteOffset": 2041640,
      "byteLength": 36336,
      "byteStride": 12,
      "target": 34962
    }
  ],
  "buffers": [
    {
      "uri": "buffer.bin",
      "byteLength": 2077976
    }
  ],
  "materials": [
    {
      "name": "FF7F7F7F",
      "doubleSided": true,
      "pbrMetallicRoughness": {
        "baseColorFactor": [
          0.49803922,
          0.49803922,
          0.49803922,
          1
        ],
        "roughnessFactor": 0.5,
        "metallicFactor": 0.05
      }
    },
    {
      "name": "FFFFFFFF",
      "doubleSided": true,
      "pbrMetallicRoughness": {
        "roughnessFactor": 0.5,
        "metallicFactor": 0.05
      }
    },
    {
      "name": "FFBFBFBF",
      "doubleSided": true,
      "pbrMetallicRoughness": {
        "baseColorFactor": [
          0.7490196,
          0.7490196,
          0.7490196,
          1
        ],
        "roughnessFactor": 0.5,
        "metallicFactor": 0.05
      }
    }
  ],
  "meshes": [
    {
      "primitives": [
        {
          "attributes": {
            "POSITION": 0
          },
          "mode": 4,
          "material": 0,
          "indices": 1
        }
      ]
    },
    {
      "primitives": [
        {
          "attributes": {
            "POSITION": 11
          },
          "mode": 4,
          "material": 1,
          "indices": 2
        }
      ]
    },
    {
      "primitives": [
        {
          "attributes": {
            "POSITION": 12
          },
          "mode": 4,
          "material": 0,
          "indices": 3
        }
      ]
    },
    {
      "primitives": [
        {
          "attributes": {
            "POSITION": 13
          },
          "mode": 4,
          "material": 2,
          "indices": 4
        }
      ]
    },
    {
      "primitives": [
        {
          "attributes": {
            "POSITION": 14
          },
          "mode": 4,
          "material": 1,
          "indices": 5
        }
      ]
    },
    {
      "primitives": [
        {
          "attributes": {
            "POSITION": 15
          },
          "mode": 4,
          "material": 1,
          "indices": 6
        }
      ]
    },
    {
      "primitives": [
        {
          "attributes": {
            "POSITION": 16
          },
          "mode": 4,
          "material": 1,
          "indices": 7
        }
      ]
    },
    {
      "primitives": [
        {
          "attributes": {
            "POSITION": 17
          },
          "mode": 4,
          "material": 2,
          "indices": 8
        }
      ]
    },
    {
      "primitives": [
        {
          "attributes": {
            "POSITION": 18
          },
          "mode": 4,
          "material": 0,
          "indices": 9
        }
      ]
    },
    {
      "primitives": [
        {
          "attributes": {
            "POSITION": 19
          },
          "mode": 4,
          "material": 1,
          "indices": 10
        }
      ]
    }
  ],
  "nodes": [
    {
      "name": "Scene",
      "children": [
        1
      ]
    },
    {
      "name": "Node0",
      "extras": {
        "name": "Node0"
      },
      "children": [
        2
      ]
    },
    {
      "name": "Node1",
      "extras": {
        "name": "Node1"
      },
      "mesh": 0,
      "children": [
        3,
        4,
        5,
        6,
        7,
        8,
        9,
        10,
        11
      ]
    },
    {
      "name": "Node2",
      "extras": {
        "name": "Node2"
      },
      "mesh": 1
    },
    {
      "name": "Node3",
      "extras": {
        "name": "Node3"
      },
      "mesh": 2
    },
    {
      "name": "Node4",
      "extras": {
        "name": "Node4"
      },
      "mesh": 3
    },
    {
      "name": "Node5",
      "extras": {
        "name": "Node5"
      },
      "mesh": 4
    },
    {
      "name": "Node6",
      "extras": {
        "name": "Node6"
      },
      "mesh": 5
    },
    {
      "name": "Node7",
      "extras": {
        "name": "Node7"
      },
      "mesh": 6
    },
    {
      "name": "Node8",
      "extras": {
        "name": "Node8"
      },
      "mesh": 7
    },
    {
      "name": "Node9",
      "extras": {
        "name": "Node9"
      },
      "mesh": 8
    },
    {
      "name": "Node10",
      "extras": {
        "name": "Node10"
      },
      "mesh": 9
    }
  ],
  "scenes": [
    {
      "name": "AuxScene",
      "nodes": [
        0
      ]
    }
  ],
  "scene": 0
}